<svg xmlns="http://www.w3.org/2000/svg" xmlns:xlink="http://www.w3.org/1999/xlink" width="500" zoomAndPan="magnify" viewBox="0 0 375 374.999991" height="500" preserveAspectRatio="xMidYMid meet" version="1.0"><defs><clipPath id="0354fa9cf1"><path d="M 117 27.40625 L 289 27.40625 L 289 347.65625 L 117 347.65625 Z M 117 27.40625 " clip-rule="nonzero"/></clipPath><clipPath id="848f13d951"><path d="M 41.960938 92 L 332.960938 92 L 332.960938 336 L 41.960938 336 Z M 41.960938 92 " clip-rule="nonzero"/></clipPath></defs><g clip-path="url(#0354fa9cf1)"><path fill="#ffbb12" d="M 277.601562 27.640625 L 202.546875 158.113281 L 288.789062 158.113281 L 128.582031 347.425781 L 184.394531 208.125 L 117.78125 208.125 L 190.785156 27.640625 Z M 277.601562 27.640625 " fill-opacity="1" fill-rule="nonzero"/></g><g clip-path="url(#848f13d951)"><path fill="#ffbb12" d="M 83.066406 280.269531 C 78.273438 278.609375 73.03125 280.078125 69.769531 283.917969 C 71.433594 279.121094 69.960938 273.875 66.125 270.613281 C 70.921875 272.277344 76.164062 270.804688 79.421875 266.96875 C 77.761719 271.765625 79.230469 277.074219 83.066406 280.269531 Z M 332.960938 112.894531 C 326.953125 107.839844 324.652344 99.65625 327.273438 92.234375 C 322.222656 98.246094 314.039062 100.550781 306.625 97.929688 C 312.632812 102.980469 314.933594 111.167969 312.3125 118.585938 C 317.363281 112.574219 325.609375 110.335938 332.960938 112.894531 Z M 269.542969 325.359375 C 258.613281 316.214844 254.457031 301.183594 259.1875 287.753906 C 250.046875 298.691406 235.023438 302.847656 221.597656 298.113281 C 232.53125 307.261719 236.6875 322.289062 231.957031 335.722656 C 241.03125 324.785156 256.054688 320.628906 269.542969 325.359375 Z M 96.683594 143.402344 C 82.234375 143.976562 68.875 135.472656 63.25 122.105469 C 63.824219 136.558594 55.324219 149.925781 41.960938 155.554688 C 56.410156 154.976562 69.769531 163.484375 75.394531 176.851562 C 74.820312 162.332031 83.324219 149.03125 96.683594 143.402344 Z M 96.683594 143.402344 " fill-opacity="1" fill-rule="nonzero"/></g><path fill="#ffcd5c" d="M 187.015625 264.730469 L 234.640625 185.804688 L 157.351562 183.375 L 225.945312 36.464844 L 262.320312 36.464844 L 187.332031 166.9375 L 269.800781 166.9375 Z M 187.015625 264.730469 " fill-opacity="1" fill-rule="nonzero"/></svg>